# xmcd
#
# Track frame offsets:
#	150
#	41442
#	98379
#	146105
#	193862
#	208545
#	221665
#	264695
#	294882
#
# Disc length: 4213 seconds
#
# Revision: 1
# Processed by: cddbd v1.5.1PL0 Copyright (c) Steve Scherf et al.
# Submitted via: audiograbber 1.80
#
DISCID=86107309
DTITLE=Nat King Cole - A Jazz Hour With - Jamming At J.A.T.P.
DYEAR=1900
DGENRE=
TTITLE0=Lester Leaps In
TTITLE1=Tea For Two
TTITLE2=Blues
TTITLE3=Body And Soul
TTITLE4=Sweet Lorraine
TTITLE5=The Man I Love
TTITLE6=I've Found A New Baby
TTITLE7=Rosetta
TTITLE8=Bugle Call Rag
EXTD=
EXTT0=
EXTT1=
EXTT2=
EXTT3=
EXTT4=
EXTT5=
EXTT6=
EXTT7=
EXTT8=
PLAYORDER=
